<?xml version="1.0" encoding="utf-8"?>
<!-- Generator: Adobe Illustrator 16.0.0, SVG Export Plug-In . SVG Version: 6.00 Build 0)  -->
<!DOCTYPE svg PUBLIC "-//W3C//DTD SVG 1.1//EN" "http://www.w3.org/Graphics/SVG/1.1/DTD/svg11.dtd">
<svg version="1.1" id="Layer_1" xmlns="http://www.w3.org/2000/svg" xmlns:xlink="http://www.w3.org/1999/xlink" x="0px" y="0px"
	 width="60px" height="60px" viewBox="0 0 60 60" enable-background="new 0 0 60 60" xml:space="preserve">
<path fill="none" stroke="#FFFFFF" stroke-width="4" stroke-miterlimit="10" d="M20,35.011"/>
<path fill="#FFFFFF" d="M26.682,0.96c0,0,0.768,2.956-5.264,7.597C15.387,13.199-6.589,27.854,2.62,43.352
	c0,0-0.844-5.998,7.754-14.644C19.112,20.068,36.357,13.933,26.682,0.96z"/>
<path fill="#FFFFFF" d="M31.561,12.729c0,0,0.621,3.445-5.039,8.21c-2.484,2.128-9.524,7.601-9.524,7.601s-20.29,12.062-5.659,30.61
	c0,0,0.552-9.021,12.423-14.19c11.871-5.17,13.665-10.744,11.042-16.826c0,0-0.553,5.575-17.807,13.38c0,0-1.38-3.549,7.178-8.921
	C32.732,27.222,37.027,22.458,31.561,12.729z"/>
</svg>
