<?xml version="1.0" encoding="utf-8"?>
<!-- Generator: Adobe Illustrator 16.0.0, SVG Export Plug-In . SVG Version: 6.00 Build 0)  -->
<!DOCTYPE svg PUBLIC "-//W3C//DTD SVG 1.1//EN" "http://www.w3.org/Graphics/SVG/1.1/DTD/svg11.dtd">
<svg version="1.1" id="Layer_1" xmlns="http://www.w3.org/2000/svg" xmlns:xlink="http://www.w3.org/1999/xlink" x="0px" y="0px"
	 width="120px" height="120px" viewBox="0 0 120 120" enable-background="new 0 0 120 120" xml:space="preserve">
<g>
	<path fill="#E6E6E6" d="M59.75,1.25c-32.272,0-58.5,26.228-58.5,58.5s26.228,58.5,58.5,58.5s58.5-26.228,58.5-58.5
		S92.022,1.25,59.75,1.25z M35.277,55.947c-3.315,0-6.044-2.73-6.044-6.045s2.729-6.044,6.044-6.044s6.045,2.729,6.045,6.044
		S38.592,55.947,35.277,55.947z M43.467,81.883c0-9.458,7.703-17.16,17.161-17.16c9.457,0,17.16,7.702,17.16,17.16H43.467z
		 M84.222,55.947c-3.313,0-6.044-2.73-6.044-6.045s2.73-6.044,6.044-6.044c3.315,0,6.046,2.729,6.046,6.044
		S87.537,55.947,84.222,55.947z"/>
	<circle fill="#FFFFFF" cx="35.277" cy="49.903" r="6.045"/>
	<circle fill="#FFFFFF" cx="84.222" cy="49.903" r="6.045"/>
	<path fill="#FFFFFF" d="M60.628,64.723c-9.458,0-17.161,7.702-17.161,17.16h34.321C77.885,72.327,70.183,64.723,60.628,64.723z"/>
</g>
</svg>
